#
#
#

mtllib Square.mtl


#
#  Mesh Mesh
#
g  Mesh Mesh

v -0.500000 0.000000 0.000000
v 0.000000 0.500000 0.000000
v 0.000000 -0.500000 -0.000000
v -0.500000 -0.000000 0.030000
v 0.000000 -0.500000 0.030000
v 0.500000 -0.000000 0.030000
v 0.500000 0.000000 0.000000
v 0.000000 0.500000 0.030000
vn 0.000000 0.000000 -1.000000
vn 0.000000 -0.000000 1.000000
vn 0.707107 -0.707107 -0.000000
vn -0.707107 0.707107 0.000000
vn -0.707107 -0.707107 -0.000000
vn 0.707107 0.707107 0.000000
vt 0.000000 0.000000
vt 1.000000 0.000000
vt 0.000000 1.000000
vt 1.000000 1.000000
f 1/1/1 2/2/1 3/3/1
f 4/1/2 5/2/2 6/4/2
f 3/1/3 7/2/3 6/4/3
f 2/1/4 1/2/4 8/3/4
f 1/1/5 3/2/5 4/3/5
f 7/1/6 2/2/6 8/4/6
f 2/2/1 7/4/1 3/3/1
f 8/3/2 4/1/2 6/4/2
f 5/3/3 3/1/3 6/4/3
f 1/2/4 4/4/4 8/3/4
f 3/2/5 5/4/5 4/3/5
f 6/3/6 7/1/6 8/4/6
