# Blender v2.66 (sub 1) OBJ File: 'Tangram+Ponies.blend'
# www.blender.org
v 2.000000 -2.000000 0.000000
v -2.000000 -2.000000 0.000000
v 2.000000 2.000000 0.000000
v -2.000000 2.000000 0.000000
v 2.000000 -2.000000 -0.200000
v -2.000000 -2.000000 -0.200000
v 2.000000 2.000000 -0.200000
v -2.000000 2.000000 -0.200000
vt 0.000000 0.000000
vt 1.000000 0.000000
vt 1.000000 1.000000
vt 0.000000 1.000000
vn 0.000000 0.000000 1.000000
vn -0.000000 -0.000000 -1.000000
vn 0.000000 1.000000 0.000000
vn 1.000000 0.000000 -0.000000
vn -1.000000 0.000000 0.000000
vn 0.000000 -1.000000 0.000000
s off
f 2/1/1 1/2/1 3/3/1
f 6/1/2 8/2/2 5/4/2
f 3/1/3 7/2/3 8/3/3
f 1/1/4 5/2/4 7/3/4
f 4/1/5 8/2/5 2/4/5
f 2/1/6 6/2/6 5/3/6
f 4/4/1 2/1/1 3/3/1
f 8/2/2 7/3/2 5/4/2
f 4/4/3 3/1/3 8/3/3
f 3/4/4 1/1/4 7/3/4
f 8/2/5 6/3/5 2/4/5
f 1/4/6 2/1/6 5/3/6
