#
#
#

mtllib BackPlane.mtl


#
#  Mesh Mesh
#
g  Mesh Mesh

v -2.000000 -2.000000 -0.000000
v 2.000000 -2.000000 -0.000000
v 2.000000 2.000000 0.000000
v -2.000000 -2.000000 -0.200000
v -2.000000 2.000000 -0.200000
v 2.000000 -2.000000 -0.200000
v 2.000000 2.000000 -0.200000
v -2.000000 2.000000 0.000000
vn 0.000000 -0.000000 1.000000
vn 0.000000 0.000000 -1.000000
vn 0.000000 1.000000 0.000000
vn 1.000000 0.000000 0.000000
vn -1.000000 0.000000 0.000000
vn 0.000000 -1.000000 -0.000000
vt 0.000000 0.000000
vt 1.000000 0.000000
vt 1.000000 1.000000
vt 0.000000 1.000000
f 1/1/1 2/2/1 3/3/1
f 4/1/2 5/2/2 6/4/2
f 3/1/3 7/2/3 5/3/3
f 2/1/4 6/2/4 7/3/4
f 8/1/5 5/2/5 1/4/5
f 1/1/6 4/2/6 6/3/6
f 8/4/1 1/1/1 3/3/1
f 5/2/2 7/3/2 6/4/2
f 8/4/3 3/1/3 5/3/3
f 3/4/4 2/1/4 7/3/4
f 5/2/5 4/3/5 1/4/5
f 2/4/6 1/1/6 6/3/6
