# Blender v2.66 (sub 1) OBJ File: 'Tangram+Ponies.blend'
# www.blender.org
v 0.000000 -0.666667 0.000000
v 1.000000 0.333333 0.000000
v -1.000000 0.333333 0.000000
v 0.000000 -0.666667 0.150000
v 1.000000 0.333333 0.150000
v -1.000000 0.333333 0.150000
vt 0.000000 0.000000
vt 1.000000 0.000000
vt 1.000000 1.000000
vt 0.000000 1.000000
vn -0.000000 -0.000000 -1.000000
vn -0.000000 0.000000 1.000000
vn 0.707107 -0.707107 0.000000
vn -0.000000 1.000000 0.000000
vn -0.707107 -0.707107 0.000000
s off
f 1/1/1 3/2/1 2/3/1
f 4/1/2 5/2/2 6/3/2
f 1/1/3 2/2/3 5/3/3
f 2/1/4 3/2/4 6/3/4
f 3/1/5 1/2/5 6/4/5
f 4/4/3 1/1/3 5/3/3
f 5/4/4 2/1/4 6/3/4
f 1/2/5 4/3/5 6/4/5
