#
#
#

mtllib BigTri.mtl


#
#  Mesh Mesh
#
g  Mesh Mesh

v 0.000000 0.000643 -0.000006
v -1.000031 1.000598 -0.005367
v 0.999953 1.000598 -0.013595
v 0.000617 0.002064 0.149986
v 1.000570 1.002019 0.136397
v -0.999413 1.002019 0.144625
vn -0.004114 -0.009475 -0.999947
vn 0.004114 0.009475 0.999947
vn 0.707128 -0.707075 0.003791
vn -0.000039 0.999955 -0.009475
vn -0.707073 -0.707075 0.009609
vt 0.000000 0.000000
vt 1.000000 0.000000
vt 1.000000 1.000000
vt 0.000000 1.000000
f 1/1/1 2/2/1 3/3/1
f 4/1/2 5/2/2 6/3/2
f 1/1/3 3/2/3 5/3/3
f 3/1/4 2/2/4 6/3/4
f 2/1/5 1/2/5 6/4/5
f 4/4/3 1/1/3 5/3/3
f 5/4/4 3/1/4 6/3/4
f 1/2/5 4/3/5 6/4/5
