# Blender v2.66 (sub 1) OBJ File: 'Tangram+Ponies.blend'
# www.blender.org
v 0.250000 0.250000 0.000000
v -0.249999 0.750000 0.000000
v 0.249999 -0.750000 0.000000
v -0.250000 -0.250000 0.000000
v 0.250000 0.250000 0.050000
v -0.249999 0.750000 0.050000
v 0.249999 -0.750000 0.050000
v -0.250000 -0.250000 0.050000
vt 0.000000 0.000000
vt 0.000000 1.000000
vt 1.000000 1.000000
vt 1.000000 0.000000
vn 0.000000 0.000000 -1.000000
vn 0.000000 -0.000000 1.000000
vn 1.000000 -0.000001 0.000000
vn -1.000000 0.000001 0.000000
vn 0.707108 0.707106 0.000000
vn -0.707108 -0.707106 -0.000000
s off
f 2/1/1 1/2/1 3/3/1
f 6/1/2 8/2/2 5/4/2
f 1/1/3 5/2/3 7/3/3
f 4/1/4 8/2/4 2/4/4
f 2/1/5 6/2/5 5/3/5
f 3/1/6 7/2/6 4/4/6
f 4/4/1 2/1/1 3/3/1
f 8/2/2 7/3/2 5/4/2
f 3/4/3 1/1/3 7/3/3
f 8/2/4 6/3/4 2/4/4
f 1/4/5 2/1/5 5/3/5
f 7/2/6 8/3/6 4/4/6
