# Blender v2.66 (sub 1) OBJ File: 'Tangram+Ponies.blend'
# www.blender.org
v 0.166667 -0.500000 0.000000
v 0.166667 0.500000 0.000000
v -0.333333 0.000000 0.000000
v 0.166667 -0.500000 0.100000
v 0.166667 0.500000 0.100000
v -0.333333 0.000000 0.100000
vt 0.000000 0.000000
vt 1.000000 0.000000
vt 1.000000 1.000000
vt 0.000000 1.000000
vn 0.000000 -0.000000 -1.000000
vn -0.000000 0.000000 1.000000
vn -0.707107 -0.707107 0.000000
vn -0.707107 0.707107 0.000000
vn 1.000000 0.000000 0.000000
s off
f 1/1/1 3/2/1 2/3/1
f 4/1/2 5/2/2 6/3/2
f 3/1/3 1/2/3 6/4/3
f 2/1/4 3/2/4 5/4/4
f 1/1/5 2/2/5 5/3/5
f 1/2/3 4/3/3 6/4/3
f 3/2/4 6/3/4 5/4/4
f 4/4/5 1/1/5 5/3/5
